<svg width="37" height="36" viewBox="0 0 37 36" fill="none" xmlns="http://www.w3.org/2000/svg">
<path d="M16.9584 28.5H20.0417V27H21.5834C22.0202 27 22.3864 26.8563 22.6819 26.5688C22.9773 26.2812 23.1251 25.925 23.1251 25.5V21C23.1251 20.575 22.9773 20.2188 22.6819 19.9313C22.3864 19.6438 22.0202 19.5 21.5834 19.5H16.9584V18H23.1251V15H20.0417V13.5H16.9584V15H15.4167C14.9799 15 14.6138 15.1438 14.3183 15.4313C14.0228 15.7188 13.8751 16.075 13.8751 16.5V21C13.8751 21.425 14.0228 21.7812 14.3183 22.0688C14.6138 22.3563 14.9799 22.5 15.4167 22.5H20.0417V24H13.8751V27H16.9584V28.5ZM9.25008 33C8.40216 33 7.6763 32.7063 7.07248 32.1188C6.46866 31.5313 6.16675 30.825 6.16675 30V6C6.16675 5.175 6.46866 4.46875 7.07248 3.88125C7.6763 3.29375 8.40216 3 9.25008 3H21.5834L30.8334 12V30C30.8334 30.825 30.5315 31.5313 29.9277 32.1188C29.3239 32.7063 28.598 33 27.7501 33H9.25008ZM20.0417 12V6H9.25008V30H27.7501V12H20.0417Z" fill="white"/>
</svg>
